<svg xmlns="http://www.w3.org/2000/svg" width="1010" height="1500"><rect width="1010" height="1500" x="0" y="0" fill="#FFFFFF" id="backgorund"/><g id="viz"><clipPath id="serieClipPath"><rect x="-50" y="-10" width="810" height="1500"/></clipPath><g transform="translate(0,0)"><g transform="translate(50,10)" clip-path="url(#serieClipPath)"><g id="axis"><g transform="translate(0,1470)" fill="none" font-size="10" font-family="sans-serif" text-anchor="middle"><path class="domain" stroke="currentColor" d="M0.5,6V0.5H666.5V6"/><g class="tick" opacity="1" transform="translate(0.5,0)"><line stroke="currentColor" y2="6"/><text fill="currentColor" y="9" dy="0.71em">0.0</text></g><g class="tick" opacity="1" transform="translate(67.10000000000001,0)"><line stroke="currentColor" y2="6"/><text fill="currentColor" y="9" dy="0.71em">0.1</text></g><g class="tick" opacity="1" transform="translate(133.70000000000002,0)"><line stroke="currentColor" y2="6"/><text fill="currentColor" y="9" dy="0.71em">0.2</text></g><g class="tick" opacity="1" transform="translate(200.29999999999998,0)"><line stroke="currentColor" y2="6"/><text fill="currentColor" y="9" dy="0.71em">0.3</text></g><g class="tick" opacity="1" transform="translate(266.90000000000003,0)"><line stroke="currentColor" y2="6"/><text fill="currentColor" y="9" dy="0.71em">0.4</text></g><g class="tick" opacity="1" transform="translate(333.5,0)"><line stroke="currentColor" y2="6"/><text fill="currentColor" y="9" dy="0.71em">0.5</text></g><g class="tick" opacity="1" transform="translate(400.09999999999997,0)"><line stroke="currentColor" y2="6"/><text fill="currentColor" y="9" dy="0.71em">0.6</text></g><g class="tick" opacity="1" transform="translate(466.7,0)"><line stroke="currentColor" y2="6"/><text fill="currentColor" y="9" dy="0.71em">0.7</text></g><g class="tick" opacity="1" transform="translate(533.3000000000001,0)"><line stroke="currentColor" y2="6"/><text fill="currentColor" y="9" dy="0.71em">0.8</text></g><g class="tick" opacity="1" transform="translate(599.9,0)"><line stroke="currentColor" y2="6"/><text fill="currentColor" y="9" dy="0.71em">0.9</text></g><g class="tick" opacity="1" transform="translate(666.5,0)"><line stroke="currentColor" y2="6"/><text fill="currentColor" y="9" dy="0.71em">1.0</text></g><text x="666" dy="-5" text-anchor="end" style="font-family: Arial, sans-serif; font-size: 12px; fill: rgb(123, 123, 123); font-weight: bold;">Load factor</text></g><g transform="translate(0,0)" fill="none" font-size="10" font-family="sans-serif" text-anchor="end"><path class="domain" stroke="currentColor" d="M0.5,1470.5V0.5"/><g class="tick" opacity="1" transform="translate(0,1470.5)"><line stroke="currentColor" x2="-6"/><text fill="currentColor" x="-9" dy="0.32em">500</text></g><g class="tick" opacity="1" transform="translate(0,1336.8636363636363)"><line stroke="currentColor" x2="-6"/><text fill="currentColor" x="-9" dy="0.32em">600</text></g><g class="tick" opacity="1" transform="translate(0,1203.2272727272727)"><line stroke="currentColor" x2="-6"/><text fill="currentColor" x="-9" dy="0.32em">700</text></g><g class="tick" opacity="1" transform="translate(0,1069.590909090909)"><line stroke="currentColor" x2="-6"/><text fill="currentColor" x="-9" dy="0.32em">800</text></g><g class="tick" opacity="1" transform="translate(0,935.9545454545455)"><line stroke="currentColor" x2="-6"/><text fill="currentColor" x="-9" dy="0.32em">900</text></g><g class="tick" opacity="1" transform="translate(0,802.3181818181818)"><line stroke="currentColor" x2="-6"/><text fill="currentColor" x="-9" dy="0.32em">1,000</text></g><g class="tick" opacity="1" transform="translate(0,668.6818181818182)"><line stroke="currentColor" x2="-6"/><text fill="currentColor" x="-9" dy="0.32em">1,100</text></g><g class="tick" opacity="1" transform="translate(0,535.0454545454545)"><line stroke="currentColor" x2="-6"/><text fill="currentColor" x="-9" dy="0.32em">1,200</text></g><g class="tick" opacity="1" transform="translate(0,401.4090909090909)"><line stroke="currentColor" x2="-6"/><text fill="currentColor" x="-9" dy="0.32em">1,300</text></g><g class="tick" opacity="1" transform="translate(0,267.7727272727272)"><line stroke="currentColor" x2="-6"/><text fill="currentColor" x="-9" dy="0.32em">1,400</text></g><g class="tick" opacity="1" transform="translate(0,134.13636363636368)"><line stroke="currentColor" x2="-6"/><text fill="currentColor" x="-9" dy="0.32em">1,500</text></g><g class="tick" opacity="1" transform="translate(0,0.5)"><line stroke="currentColor" x2="-6"/><text fill="currentColor" x="-9" dy="0.32em">1,600</text></g><text x="4" text-anchor="start" dominant-baseline="hanging" style="font-family: Arial, sans-serif; font-size: 12px; fill: rgb(123, 123, 123); font-weight: bold;">Result (ms)</text></g></g><g id="viz"><g id="Athena 32"><path d="M0,218.09454545454545C22.200000000000003,766.8054545454548,44.400000000000006,1315.5163636363638,66.60000000000001,1316.8527272727274C88.80000000000001,1318.189090909091,111.00000000000001,1318.8572727272726,133.20000000000002,1318.8572727272726C155.4,1318.8572727272726,177.6,1314.7145454545455,199.79999999999998,1314.7145454545455C222,1314.7145454545455,244.20000000000002,1318.8572727272726,266.40000000000003,1318.8572727272726C288.6,1318.8572727272726,310.8,1318.8572727272726,333,1318.8572727272726C355.2,1318.8572727272726,377.4,1316.8527272727274,399.59999999999997,1316.8527272727274C421.79999999999995,1316.8527272727274,444,1318.8572727272726,466.2,1318.8572727272726C488.40000000000003,1318.8572727272726,510.6,1318.8572727272726,532.8000000000001,1318.8572727272726C555,1318.8572727272726,577.2,1318.8572727272726,599.4,1318.8572727272726C621.6,1318.8572727272726,643.8,1318.8572727272726,666,1318.8572727272726" stroke="#1f77b4" fill="none"/><g><circle class="dot" cx="0" cy="218.09454545454545" r="2" fill="#1f77b4"/><circle class="dot" cx="66.60000000000001" cy="1316.8527272727274" r="2" fill="#1f77b4"/><circle class="dot" cx="133.20000000000002" cy="1318.8572727272726" r="2" fill="#1f77b4"/><circle class="dot" cx="199.79999999999998" cy="1314.7145454545455" r="2" fill="#1f77b4"/><circle class="dot" cx="266.40000000000003" cy="1318.8572727272726" r="2" fill="#1f77b4"/><circle class="dot" cx="333" cy="1318.8572727272726" r="2" fill="#1f77b4"/><circle class="dot" cx="399.59999999999997" cy="1316.8527272727274" r="2" fill="#1f77b4"/><circle class="dot" cx="466.2" cy="1318.8572727272726" r="2" fill="#1f77b4"/><circle class="dot" cx="532.8000000000001" cy="1318.8572727272726" r="2" fill="#1f77b4"/><circle class="dot" cx="599.4" cy="1318.8572727272726" r="2" fill="#1f77b4"/><circle class="dot" cx="666" cy="1318.8572727272726" r="2" fill="#1f77b4"/></g><text font-family="sans-serif" font-size="10" class="labels" x="666" y="1318.8572727272726" dx="5" dy="4" text-anchor="start">Athena 32</text></g><g id="Murmur2 32"><path d="M0,259.7890909090911C22.200000000000003,797.965,44.400000000000006,1336.140909090909,66.60000000000001,1337.5663636363636C88.80000000000001,1338.9918181818182,111.00000000000001,1339.7045454545455,133.20000000000002,1339.7045454545455C155.4,1339.7045454545455,177.6,1335.5618181818181,199.79999999999998,1335.5618181818181C222,1335.5618181818181,244.20000000000002,1337.5663636363636,266.40000000000003,1337.5663636363636C288.6,1337.5663636363636,310.8,1337.5663636363636,333,1337.5663636363636C355.2,1337.5663636363636,377.4,1339.838181818182,399.59999999999997,1339.838181818182C421.79999999999995,1339.838181818182,444,1339.7936363636366,466.2,1339.7045454545455C488.40000000000003,1339.6154545454544,510.6,1335.5618181818181,532.8000000000001,1335.5618181818181C555,1335.5618181818181,577.2,1339.7045454545455,599.4,1339.7045454545455C621.6,1339.7045454545455,643.8,1338.7022727272729,666,1337.7" stroke="#ff7f0e" fill="none"/><g><circle class="dot" cx="0" cy="259.7890909090911" r="2" fill="#ff7f0e"/><circle class="dot" cx="66.60000000000001" cy="1337.5663636363636" r="2" fill="#ff7f0e"/><circle class="dot" cx="133.20000000000002" cy="1339.7045454545455" r="2" fill="#ff7f0e"/><circle class="dot" cx="199.79999999999998" cy="1335.5618181818181" r="2" fill="#ff7f0e"/><circle class="dot" cx="266.40000000000003" cy="1337.5663636363636" r="2" fill="#ff7f0e"/><circle class="dot" cx="333" cy="1337.5663636363636" r="2" fill="#ff7f0e"/><circle class="dot" cx="399.59999999999997" cy="1339.838181818182" r="2" fill="#ff7f0e"/><circle class="dot" cx="466.2" cy="1339.7045454545455" r="2" fill="#ff7f0e"/><circle class="dot" cx="532.8000000000001" cy="1335.5618181818181" r="2" fill="#ff7f0e"/><circle class="dot" cx="599.4" cy="1339.7045454545455" r="2" fill="#ff7f0e"/><circle class="dot" cx="666" cy="1337.7" r="2" fill="#ff7f0e"/></g><text font-family="sans-serif" font-size="10" class="labels" x="666" y="1337.7" dx="5" dy="4" text-anchor="start">Murmur2 32</text></g><g id="Murmur3 32"><path d="M0,245.22272727272735C22.200000000000003,787.6527272727276,44.400000000000006,1330.0827272727274,66.60000000000001,1331.419090909091C88.80000000000001,1332.7554545454545,111.00000000000001,1333.4236363636362,133.20000000000002,1333.4236363636362C155.4,1333.4236363636362,177.6,1332.1095454545455,199.79999999999998,1331.419090909091C222,1330.7286363636365,244.20000000000002,1329.2809090909093,266.40000000000003,1329.2809090909093C288.6,1329.2809090909093,310.8,1330.7286363636365,333,1331.419090909091C355.2,1332.1095454545455,377.4,1333.4236363636362,399.59999999999997,1333.4236363636362C421.79999999999995,1333.4236363636362,444,1333.4236363636362,466.2,1333.4236363636362C488.40000000000003,1333.4236363636362,510.6,1333.4236363636362,532.8000000000001,1333.4236363636362C555,1333.4236363636362,577.2,1331.419090909091,599.4,1331.419090909091C621.6,1331.419090909091,643.8,1331.419090909091,666,1331.419090909091" stroke="#2ca02c" fill="none"/><g><circle class="dot" cx="0" cy="245.22272727272735" r="2" fill="#2ca02c"/><circle class="dot" cx="66.60000000000001" cy="1331.419090909091" r="2" fill="#2ca02c"/><circle class="dot" cx="133.20000000000002" cy="1333.4236363636362" r="2" fill="#2ca02c"/><circle class="dot" cx="199.79999999999998" cy="1331.419090909091" r="2" fill="#2ca02c"/><circle class="dot" cx="266.40000000000003" cy="1329.2809090909093" r="2" fill="#2ca02c"/><circle class="dot" cx="333" cy="1331.419090909091" r="2" fill="#2ca02c"/><circle class="dot" cx="399.59999999999997" cy="1333.4236363636362" r="2" fill="#2ca02c"/><circle class="dot" cx="466.2" cy="1333.4236363636362" r="2" fill="#2ca02c"/><circle class="dot" cx="532.8000000000001" cy="1333.4236363636362" r="2" fill="#2ca02c"/><circle class="dot" cx="599.4" cy="1331.419090909091" r="2" fill="#2ca02c"/><circle class="dot" cx="666" cy="1331.419090909091" r="2" fill="#2ca02c"/></g><text font-family="sans-serif" font-size="10" class="labels" x="666" y="1331.419090909091" dx="5" dy="4" text-anchor="start">Murmur3 32</text></g><g id="Murmur3 x64 128"><path d="M0,126.28636363636367C22.200000000000003,663.1704545454546,44.400000000000006,1200.0545454545454,66.60000000000001,1200.0545454545454C88.80000000000001,1200.0545454545454,111.00000000000001,1200.0545454545454,133.20000000000002,1200.0545454545454C155.4,1200.0545454545454,177.6,1204.3309090909092,199.79999999999998,1204.3309090909092C222,1204.3309090909092,244.20000000000002,1204.2863636363638,266.40000000000003,1204.1972727272728C288.6,1204.1081818181817,310.8,1202.8831818181818,333,1202.1927272727273C355.2,1201.5022727272728,377.4,1200.0545454545454,399.59999999999997,1200.0545454545454C421.79999999999995,1200.0545454545454,444,1202.0590909090909,466.2,1202.0590909090909C488.40000000000003,1202.0590909090909,510.6,1200.0545454545454,532.8000000000001,1200.0545454545454C555,1200.0545454545454,577.2,1202.1927272727273,599.4,1202.1927272727273C621.6,1202.1927272727273,643.8,1201.1236363636363,666,1200.0545454545454" stroke="#d62728" fill="none"/><g><circle class="dot" cx="0" cy="126.28636363636367" r="2" fill="#d62728"/><circle class="dot" cx="66.60000000000001" cy="1200.0545454545454" r="2" fill="#d62728"/><circle class="dot" cx="133.20000000000002" cy="1200.0545454545454" r="2" fill="#d62728"/><circle class="dot" cx="199.79999999999998" cy="1204.3309090909092" r="2" fill="#d62728"/><circle class="dot" cx="266.40000000000003" cy="1204.1972727272728" r="2" fill="#d62728"/><circle class="dot" cx="333" cy="1202.1927272727273" r="2" fill="#d62728"/><circle class="dot" cx="399.59999999999997" cy="1200.0545454545454" r="2" fill="#d62728"/><circle class="dot" cx="466.2" cy="1202.0590909090909" r="2" fill="#d62728"/><circle class="dot" cx="532.8000000000001" cy="1200.0545454545454" r="2" fill="#d62728"/><circle class="dot" cx="599.4" cy="1202.1927272727273" r="2" fill="#d62728"/><circle class="dot" cx="666" cy="1200.0545454545454" r="2" fill="#d62728"/></g><text font-family="sans-serif" font-size="10" class="labels" x="666" y="1200.0545454545454" dx="5" dy="4" text-anchor="start">Murmur3 x64 128</text></g><g id="XXHASH 32"><path d="M0,247.22727272727278C22.200000000000003,786.1827272727273,44.400000000000006,1325.138181818182,66.60000000000001,1325.138181818182C88.80000000000001,1325.138181818182,111.00000000000001,1325.138181818182,133.20000000000002,1325.138181818182C155.4,1325.138181818182,177.6,1323,199.79999999999998,1323C222,1323,244.20000000000002,1323,266.40000000000003,1323C288.6,1323,310.8,1323.1336363636362,333,1323.1336363636362C355.2,1323.1336363636362,377.4,1323,399.59999999999997,1323C421.79999999999995,1323,444,1323,466.2,1323C488.40000000000003,1323,510.6,1325.138181818182,532.8000000000001,1325.138181818182C555,1325.138181818182,577.2,1320.9954545454545,599.4,1320.9954545454545C621.6,1320.9954545454545,643.8,1322.0645454545454,666,1323.1336363636362" stroke="#8c564b" fill="none"/><g><circle class="dot" cx="0" cy="247.22727272727278" r="2" fill="#8c564b"/><circle class="dot" cx="66.60000000000001" cy="1325.138181818182" r="2" fill="#8c564b"/><circle class="dot" cx="133.20000000000002" cy="1325.138181818182" r="2" fill="#8c564b"/><circle class="dot" cx="199.79999999999998" cy="1323" r="2" fill="#8c564b"/><circle class="dot" cx="266.40000000000003" cy="1323" r="2" fill="#8c564b"/><circle class="dot" cx="333" cy="1323.1336363636362" r="2" fill="#8c564b"/><circle class="dot" cx="399.59999999999997" cy="1323" r="2" fill="#8c564b"/><circle class="dot" cx="466.2" cy="1323" r="2" fill="#8c564b"/><circle class="dot" cx="532.8000000000001" cy="1325.138181818182" r="2" fill="#8c564b"/><circle class="dot" cx="599.4" cy="1320.9954545454545" r="2" fill="#8c564b"/><circle class="dot" cx="666" cy="1323.1336363636362" r="2" fill="#8c564b"/></g><text font-family="sans-serif" font-size="10" class="labels" x="666" y="1323.1336363636362" dx="5" dy="4" text-anchor="start">XXHASH 32</text></g><g id="XXHASH 64"><path d="M0,145.12909090909082C22.200000000000003,678.8059090909089,44.400000000000006,1212.4827272727273,66.60000000000001,1212.4827272727273C88.80000000000001,1212.4827272727273,111.00000000000001,1212.4827272727273,133.20000000000002,1212.4827272727273C155.4,1212.4827272727273,177.6,1212.4827272727273,199.79999999999998,1212.4827272727273C222,1212.4827272727273,244.20000000000002,1210.4781818181818,266.40000000000003,1210.4781818181818C288.6,1210.4781818181818,310.8,1212.4827272727273,333,1212.4827272727273C355.2,1212.4827272727273,377.4,1210.4781818181818,399.59999999999997,1210.4781818181818C421.79999999999995,1210.4781818181818,444,1212.4827272727273,466.2,1212.4827272727273C488.40000000000003,1212.4827272727273,510.6,1208.3400000000001,532.8000000000001,1208.3400000000001C555,1208.3400000000001,577.2,1212.4827272727273,599.4,1212.4827272727273C621.6,1212.4827272727273,643.8,1211.4804545454544,666,1210.4781818181818" stroke="#e377c2" fill="none"/><g><circle class="dot" cx="0" cy="145.12909090909082" r="2" fill="#e377c2"/><circle class="dot" cx="66.60000000000001" cy="1212.4827272727273" r="2" fill="#e377c2"/><circle class="dot" cx="133.20000000000002" cy="1212.4827272727273" r="2" fill="#e377c2"/><circle class="dot" cx="199.79999999999998" cy="1212.4827272727273" r="2" fill="#e377c2"/><circle class="dot" cx="266.40000000000003" cy="1210.4781818181818" r="2" fill="#e377c2"/><circle class="dot" cx="333" cy="1212.4827272727273" r="2" fill="#e377c2"/><circle class="dot" cx="399.59999999999997" cy="1210.4781818181818" r="2" fill="#e377c2"/><circle class="dot" cx="466.2" cy="1212.4827272727273" r="2" fill="#e377c2"/><circle class="dot" cx="532.8000000000001" cy="1208.3400000000001" r="2" fill="#e377c2"/><circle class="dot" cx="599.4" cy="1212.4827272727273" r="2" fill="#e377c2"/><circle class="dot" cx="666" cy="1210.4781818181818" r="2" fill="#e377c2"/></g><text font-family="sans-serif" font-size="10" class="labels" x="666" y="1210.4781818181818" dx="5" dy="4" text-anchor="start">XXHASH 64</text></g><g id="XXH3 64"><path d="M0,218.09454545454545C22.200000000000003,758.0522727272727,44.400000000000006,1298.01,66.60000000000001,1298.01C88.80000000000001,1298.01,111.00000000000001,1298.01,133.20000000000002,1298.01C155.4,1298.01,177.6,1298.01,199.79999999999998,1298.01C222,1298.01,244.20000000000002,1296.6959090909088,266.40000000000003,1296.0054545454543C288.6,1295.3149999999998,310.8,1293.8672727272726,333,1293.8672727272726C355.2,1293.8672727272726,377.4,1293.8672727272726,399.59999999999997,1293.8672727272726C421.79999999999995,1293.8672727272726,444,1298.01,466.2,1298.01C488.40000000000003,1298.01,510.6,1298.01,532.8000000000001,1298.01C555,1298.01,577.2,1300.1481818181817,599.4,1300.1481818181817C621.6,1300.1481818181817,643.8,1299.0790909090908,666,1298.01" stroke="#9467bd" fill="none"/><g><circle class="dot" cx="0" cy="218.09454545454545" r="2" fill="#9467bd"/><circle class="dot" cx="66.60000000000001" cy="1298.01" r="2" fill="#9467bd"/><circle class="dot" cx="133.20000000000002" cy="1298.01" r="2" fill="#9467bd"/><circle class="dot" cx="199.79999999999998" cy="1298.01" r="2" fill="#9467bd"/><circle class="dot" cx="266.40000000000003" cy="1296.0054545454543" r="2" fill="#9467bd"/><circle class="dot" cx="333" cy="1293.8672727272726" r="2" fill="#9467bd"/><circle class="dot" cx="399.59999999999997" cy="1293.8672727272726" r="2" fill="#9467bd"/><circle class="dot" cx="466.2" cy="1298.01" r="2" fill="#9467bd"/><circle class="dot" cx="532.8000000000001" cy="1298.01" r="2" fill="#9467bd"/><circle class="dot" cx="599.4" cy="1300.1481818181817" r="2" fill="#9467bd"/><circle class="dot" cx="666" cy="1298.01" r="2" fill="#9467bd"/></g><text font-family="sans-serif" font-size="10" class="labels" x="666" y="1298.01" dx="5" dy="4" text-anchor="start">XXH3 64</text></g></g></g><text y="4" x="4" style="font-family: Arial, sans-serif; font-size: 12px; fill: black; font-weight: bold; dominant-baseline: hanging;"/></g><g id="grid"><rect x="0" y="0" width="810" height="1500" fill="none" stroke="#ccc"/></g></g><g id="legend" transform="translate(810,10)"><g transform="translate(5,0)"><g class="legendColor" transform="translate(0,0)"><g class="legendCells" transform="translate(0,16)"><g class="cell" transform="translate(0, 0)"><rect class="swatch" height="15" width="15" style="fill: rgb(31, 119, 180);"/><text class="label" transform="translate( 20, 12.5)" font-family="&quot;Arial&quot;, sans-serif" font-size="10px"><tspan x="0" dy="0em">Athena 32</tspan></text></g><g class="cell" transform="translate(0, 21)"><rect class="swatch" height="15" width="15" style="fill: rgb(255, 127, 14);"/><text class="label" transform="translate( 20, 12.5)" font-family="&quot;Arial&quot;, sans-serif" font-size="10px"><tspan x="0" dy="0em">Murmur2 32</tspan></text></g><g class="cell" transform="translate(0, 42)"><rect class="swatch" height="15" width="15" style="fill: rgb(44, 160, 44);"/><text class="label" transform="translate( 20, 12.5)" font-family="&quot;Arial&quot;, sans-serif" font-size="10px"><tspan x="0" dy="0em">Murmur3 32</tspan></text></g><g class="cell" transform="translate(0, 63)"><rect class="swatch" height="15" width="15" style="fill: rgb(214, 39, 40);"/><text class="label" transform="translate( 20, 12.5)" font-family="&quot;Arial&quot;, sans-serif" font-size="10px"><tspan x="0" dy="0em">Murmur3 x64 128</tspan></text></g><g class="cell" transform="translate(0, 84)"><rect class="swatch" height="15" width="15" style="fill: rgb(148, 103, 189);"/><text class="label" transform="translate( 20, 12.5)" font-family="&quot;Arial&quot;, sans-serif" font-size="10px"><tspan x="0" dy="0em">XXH3 64</tspan></text></g><g class="cell" transform="translate(0, 105)"><rect class="swatch" height="15" width="15" style="fill: rgb(140, 86, 75);"/><text class="label" transform="translate( 20, 12.5)" font-family="&quot;Arial&quot;, sans-serif" font-size="10px"><tspan x="0" dy="0em">XXHASH 32</tspan></text></g><g class="cell" transform="translate(0, 126)"><rect class="swatch" height="15" width="15" style="fill: rgb(227, 119, 194);"/><text class="label" transform="translate( 20, 12.5)" font-family="&quot;Arial&quot;, sans-serif" font-size="10px"><tspan x="0" dy="0em">XXHASH 64</tspan></text></g></g><text class="legendTitle" font-family="&quot;Arial&quot;, sans-serif" font-size="12px" font-weight="bold"><tspan x="0" dy="0em">Hash</tspan></text></g></g></g></svg>