<svg xmlns="http://www.w3.org/2000/svg" width="1010" height="1500"><rect width="1010" height="1500" x="0" y="0" fill="#FFFFFF" id="backgorund"/><g id="viz"><clipPath id="serieClipPath"><rect x="-50" y="-10" width="810" height="1500"/></clipPath><g transform="translate(0,0)"><g transform="translate(50,10)" clip-path="url(#serieClipPath)"><g id="axis"><g transform="translate(0,1470)" fill="none" font-size="10" font-family="sans-serif" text-anchor="middle"><path class="domain" stroke="currentColor" d="M0.5,6V0.5H666.5V6"/><g class="tick" opacity="1" transform="translate(0.5,0)"><line stroke="currentColor" y2="6"/><text fill="currentColor" y="9" dy="0.71em">0.0</text></g><g class="tick" opacity="1" transform="translate(67.10000000000001,0)"><line stroke="currentColor" y2="6"/><text fill="currentColor" y="9" dy="0.71em">0.1</text></g><g class="tick" opacity="1" transform="translate(133.70000000000002,0)"><line stroke="currentColor" y2="6"/><text fill="currentColor" y="9" dy="0.71em">0.2</text></g><g class="tick" opacity="1" transform="translate(200.29999999999998,0)"><line stroke="currentColor" y2="6"/><text fill="currentColor" y="9" dy="0.71em">0.3</text></g><g class="tick" opacity="1" transform="translate(266.90000000000003,0)"><line stroke="currentColor" y2="6"/><text fill="currentColor" y="9" dy="0.71em">0.4</text></g><g class="tick" opacity="1" transform="translate(333.5,0)"><line stroke="currentColor" y2="6"/><text fill="currentColor" y="9" dy="0.71em">0.5</text></g><g class="tick" opacity="1" transform="translate(400.09999999999997,0)"><line stroke="currentColor" y2="6"/><text fill="currentColor" y="9" dy="0.71em">0.6</text></g><g class="tick" opacity="1" transform="translate(466.7,0)"><line stroke="currentColor" y2="6"/><text fill="currentColor" y="9" dy="0.71em">0.7</text></g><g class="tick" opacity="1" transform="translate(533.3000000000001,0)"><line stroke="currentColor" y2="6"/><text fill="currentColor" y="9" dy="0.71em">0.8</text></g><g class="tick" opacity="1" transform="translate(599.9,0)"><line stroke="currentColor" y2="6"/><text fill="currentColor" y="9" dy="0.71em">0.9</text></g><g class="tick" opacity="1" transform="translate(666.5,0)"><line stroke="currentColor" y2="6"/><text fill="currentColor" y="9" dy="0.71em">1.0</text></g><text x="666" dy="-5" text-anchor="end" style="font-family: Arial, sans-serif; font-size: 12px; fill: rgb(123, 123, 123); font-weight: bold;">Load factor</text></g><g transform="translate(0,0)" fill="none" font-size="10" font-family="sans-serif" text-anchor="end"><path class="domain" stroke="currentColor" d="M0.5,1470.5V0.5"/><g class="tick" opacity="1" transform="translate(0,1470.5)"><line stroke="currentColor" x2="-6"/><text fill="currentColor" x="-9" dy="0.32em">500</text></g><g class="tick" opacity="1" transform="translate(0,1323.5)"><line stroke="currentColor" x2="-6"/><text fill="currentColor" x="-9" dy="0.32em">600</text></g><g class="tick" opacity="1" transform="translate(0,1176.5)"><line stroke="currentColor" x2="-6"/><text fill="currentColor" x="-9" dy="0.32em">700</text></g><g class="tick" opacity="1" transform="translate(0,1029.5)"><line stroke="currentColor" x2="-6"/><text fill="currentColor" x="-9" dy="0.32em">800</text></g><g class="tick" opacity="1" transform="translate(0,882.5)"><line stroke="currentColor" x2="-6"/><text fill="currentColor" x="-9" dy="0.32em">900</text></g><g class="tick" opacity="1" transform="translate(0,735.5)"><line stroke="currentColor" x2="-6"/><text fill="currentColor" x="-9" dy="0.32em">1,000</text></g><g class="tick" opacity="1" transform="translate(0,588.5)"><line stroke="currentColor" x2="-6"/><text fill="currentColor" x="-9" dy="0.32em">1,100</text></g><g class="tick" opacity="1" transform="translate(0,441.50000000000006)"><line stroke="currentColor" x2="-6"/><text fill="currentColor" x="-9" dy="0.32em">1,200</text></g><g class="tick" opacity="1" transform="translate(0,294.49999999999994)"><line stroke="currentColor" x2="-6"/><text fill="currentColor" x="-9" dy="0.32em">1,300</text></g><g class="tick" opacity="1" transform="translate(0,147.49999999999997)"><line stroke="currentColor" x2="-6"/><text fill="currentColor" x="-9" dy="0.32em">1,400</text></g><g class="tick" opacity="1" transform="translate(0,0.5)"><line stroke="currentColor" x2="-6"/><text fill="currentColor" x="-9" dy="0.32em">1,500</text></g><text x="4" text-anchor="start" dominant-baseline="hanging" style="font-family: Arial, sans-serif; font-size: 12px; fill: rgb(123, 123, 123); font-weight: bold;">Result (ms)</text></g></g><g id="viz"><g id="Athena 32"><path d="M0,225.93900000000008C22.200000000000003,817.4915000000001,44.400000000000006,1409.044,66.60000000000001,1409.142C88.80000000000001,1409.24,111.00000000000001,1409.191,133.20000000000002,1409.289C155.4,1409.387,177.6,1413.846,199.79999999999998,1413.846C222,1413.846,244.20000000000002,1413.0130000000001,266.40000000000003,1411.4940000000001C288.6,1409.9750000000001,310.8,1404.732,333,1404.732C355.2,1404.732,377.4,1411.3960000000004,399.59999999999997,1411.4940000000001C421.79999999999995,1411.5919999999999,444,1411.6409999999998,466.2,1411.6409999999998C488.40000000000003,1411.6409999999998,510.6,1409.142,532.8000000000001,1409.142C555,1409.142,577.2,1411.6409999999998,599.4,1411.6409999999998C621.6,1411.6409999999998,643.8,1410.465,666,1409.289" stroke="#1f77b4" fill="none"/><g><circle class="dot" cx="0" cy="225.93900000000008" r="2" fill="#1f77b4"/><circle class="dot" cx="66.60000000000001" cy="1409.142" r="2" fill="#1f77b4"/><circle class="dot" cx="133.20000000000002" cy="1409.289" r="2" fill="#1f77b4"/><circle class="dot" cx="199.79999999999998" cy="1413.846" r="2" fill="#1f77b4"/><circle class="dot" cx="266.40000000000003" cy="1411.4940000000001" r="2" fill="#1f77b4"/><circle class="dot" cx="333" cy="1404.732" r="2" fill="#1f77b4"/><circle class="dot" cx="399.59999999999997" cy="1411.4940000000001" r="2" fill="#1f77b4"/><circle class="dot" cx="466.2" cy="1411.6409999999998" r="2" fill="#1f77b4"/><circle class="dot" cx="532.8000000000001" cy="1409.142" r="2" fill="#1f77b4"/><circle class="dot" cx="599.4" cy="1411.6409999999998" r="2" fill="#1f77b4"/><circle class="dot" cx="666" cy="1409.289" r="2" fill="#1f77b4"/></g><text font-family="sans-serif" font-size="10" class="labels" x="666" y="1409.289" dx="5" dy="4" text-anchor="start">Athena 32</text></g><g id="Murmur2 32"><path d="M0,253.42800000000017C22.200000000000003,842.8245000000002,44.400000000000006,1432.221,66.60000000000001,1432.221C88.80000000000001,1432.221,111.00000000000001,1432.221,133.20000000000002,1432.221C155.4,1432.221,177.6,1432.221,199.79999999999998,1432.221C222,1432.221,244.20000000000002,1432.074,266.40000000000003,1432.074C288.6,1432.074,310.8,1432.221,333,1432.221C355.2,1432.221,377.4,1432.221,399.59999999999997,1432.221C421.79999999999995,1432.221,444,1432.221,466.2,1432.221C488.40000000000003,1432.221,510.6,1432.221,532.8000000000001,1432.221C555,1432.221,577.2,1432.221,599.4,1432.221C621.6,1432.221,643.8,1433.3235,666,1434.426" stroke="#ff7f0e" fill="none"/><g><circle class="dot" cx="0" cy="253.42800000000017" r="2" fill="#ff7f0e"/><circle class="dot" cx="66.60000000000001" cy="1432.221" r="2" fill="#ff7f0e"/><circle class="dot" cx="133.20000000000002" cy="1432.221" r="2" fill="#ff7f0e"/><circle class="dot" cx="199.79999999999998" cy="1432.221" r="2" fill="#ff7f0e"/><circle class="dot" cx="266.40000000000003" cy="1432.074" r="2" fill="#ff7f0e"/><circle class="dot" cx="333" cy="1432.221" r="2" fill="#ff7f0e"/><circle class="dot" cx="399.59999999999997" cy="1432.221" r="2" fill="#ff7f0e"/><circle class="dot" cx="466.2" cy="1432.221" r="2" fill="#ff7f0e"/><circle class="dot" cx="532.8000000000001" cy="1432.221" r="2" fill="#ff7f0e"/><circle class="dot" cx="599.4" cy="1432.221" r="2" fill="#ff7f0e"/><circle class="dot" cx="666" cy="1434.426" r="2" fill="#ff7f0e"/></g><text font-family="sans-serif" font-size="10" class="labels" x="666" y="1434.426" dx="5" dy="4" text-anchor="start">Murmur2 32</text></g><g id="Murmur3 32"><path d="M0,241.9619999999998C22.200000000000003,830.6234999999999,44.400000000000006,1419.285,66.60000000000001,1420.755C88.80000000000001,1422.2250000000001,111.00000000000001,1422.2005,133.20000000000002,1422.96C155.4,1423.7195,177.6,1425.3120000000001,199.79999999999998,1425.3120000000001C222,1425.3120000000001,244.20000000000002,1422.96,266.40000000000003,1422.96C288.6,1422.96,310.8,1425.3120000000001,333,1425.3120000000001C355.2,1425.3120000000001,377.4,1425.3120000000001,399.59999999999997,1425.3120000000001C421.79999999999995,1425.3120000000001,444,1427.664,466.2,1427.664C488.40000000000003,1427.664,510.6,1426.0960000000002,532.8000000000001,1425.3120000000001C555,1424.5280000000002,577.2,1422.96,599.4,1422.96C621.6,1422.96,643.8,1424.136,666,1425.3120000000001" stroke="#2ca02c" fill="none"/><g><circle class="dot" cx="0" cy="241.9619999999998" r="2" fill="#2ca02c"/><circle class="dot" cx="66.60000000000001" cy="1420.755" r="2" fill="#2ca02c"/><circle class="dot" cx="133.20000000000002" cy="1422.96" r="2" fill="#2ca02c"/><circle class="dot" cx="199.79999999999998" cy="1425.3120000000001" r="2" fill="#2ca02c"/><circle class="dot" cx="266.40000000000003" cy="1422.96" r="2" fill="#2ca02c"/><circle class="dot" cx="333" cy="1425.3120000000001" r="2" fill="#2ca02c"/><circle class="dot" cx="399.59999999999997" cy="1425.3120000000001" r="2" fill="#2ca02c"/><circle class="dot" cx="466.2" cy="1427.664" r="2" fill="#2ca02c"/><circle class="dot" cx="532.8000000000001" cy="1425.3120000000001" r="2" fill="#2ca02c"/><circle class="dot" cx="599.4" cy="1422.96" r="2" fill="#2ca02c"/><circle class="dot" cx="666" cy="1425.3120000000001" r="2" fill="#2ca02c"/></g><text font-family="sans-serif" font-size="10" class="labels" x="666" y="1425.3120000000001" dx="5" dy="4" text-anchor="start">Murmur3 32</text></g><g id="Murmur3 x64 128"><path d="M0,115.98300000000012C22.200000000000003,698.3969999999999,44.400000000000006,1280.811,66.60000000000001,1280.811C88.80000000000001,1280.811,111.00000000000001,1280.811,133.20000000000002,1280.811C155.4,1280.811,177.6,1278.459,199.79999999999998,1278.459C222,1278.459,244.20000000000002,1278.6059999999998,266.40000000000003,1278.6059999999998C288.6,1278.6059999999998,310.8,1277.7975000000001,333,1276.2540000000001C355.2,1274.7105000000001,377.4,1269.3449999999998,399.59999999999997,1269.3449999999998C421.79999999999995,1269.3449999999998,444,1280.811,466.2,1280.811C488.40000000000003,1280.811,510.6,1280.811,532.8000000000001,1280.811C555,1280.811,577.2,1280.811,599.4,1280.811C621.6,1280.811,643.8,1280.8845,666,1280.9579999999999" stroke="#d62728" fill="none"/><g><circle class="dot" cx="0" cy="115.98300000000012" r="2" fill="#d62728"/><circle class="dot" cx="66.60000000000001" cy="1280.811" r="2" fill="#d62728"/><circle class="dot" cx="133.20000000000002" cy="1280.811" r="2" fill="#d62728"/><circle class="dot" cx="199.79999999999998" cy="1278.459" r="2" fill="#d62728"/><circle class="dot" cx="266.40000000000003" cy="1278.6059999999998" r="2" fill="#d62728"/><circle class="dot" cx="333" cy="1276.2540000000001" r="2" fill="#d62728"/><circle class="dot" cx="399.59999999999997" cy="1269.3449999999998" r="2" fill="#d62728"/><circle class="dot" cx="466.2" cy="1280.811" r="2" fill="#d62728"/><circle class="dot" cx="532.8000000000001" cy="1280.811" r="2" fill="#d62728"/><circle class="dot" cx="599.4" cy="1280.811" r="2" fill="#d62728"/><circle class="dot" cx="666" cy="1280.9579999999999" r="2" fill="#d62728"/></g><text font-family="sans-serif" font-size="10" class="labels" x="666" y="1280.9579999999999" dx="5" dy="4" text-anchor="start">Murmur3 x64 128</text></g><g id="XXHASH 32"><path d="M0,251.07599999999994C22.200000000000003,834.7394999999999,44.400000000000006,1418.403,66.60000000000001,1418.403C88.80000000000001,1418.403,111.00000000000001,1413.846,133.20000000000002,1413.846C155.4,1413.846,177.6,1415.4385000000002,199.79999999999998,1416.198C222,1416.9575000000002,244.20000000000002,1418.403,266.40000000000003,1418.403C288.6,1418.403,310.8,1416.2960000000003,333,1416.198C355.2,1416.1,377.4,1416.1490000000001,399.59999999999997,1416.051C421.79999999999995,1415.9529999999997,444,1411.6409999999998,466.2,1411.6409999999998C488.40000000000003,1411.6409999999998,510.6,1418.403,532.8000000000001,1418.403C555,1418.403,577.2,1416.051,599.4,1416.051C621.6,1416.051,643.8,1416.1245,666,1416.198" stroke="#8c564b" fill="none"/><g><circle class="dot" cx="0" cy="251.07599999999994" r="2" fill="#8c564b"/><circle class="dot" cx="66.60000000000001" cy="1418.403" r="2" fill="#8c564b"/><circle class="dot" cx="133.20000000000002" cy="1413.846" r="2" fill="#8c564b"/><circle class="dot" cx="199.79999999999998" cy="1416.198" r="2" fill="#8c564b"/><circle class="dot" cx="266.40000000000003" cy="1418.403" r="2" fill="#8c564b"/><circle class="dot" cx="333" cy="1416.198" r="2" fill="#8c564b"/><circle class="dot" cx="399.59999999999997" cy="1416.051" r="2" fill="#8c564b"/><circle class="dot" cx="466.2" cy="1411.6409999999998" r="2" fill="#8c564b"/><circle class="dot" cx="532.8000000000001" cy="1418.403" r="2" fill="#8c564b"/><circle class="dot" cx="599.4" cy="1416.051" r="2" fill="#8c564b"/><circle class="dot" cx="666" cy="1416.198" r="2" fill="#8c564b"/></g><text font-family="sans-serif" font-size="10" class="labels" x="666" y="1416.198" dx="5" dy="4" text-anchor="start">XXHASH 32</text></g><g id="XXHASH 64"><path d="M0,125.09699999999994C22.200000000000003,705.2325,44.400000000000006,1285.368,66.60000000000001,1285.368C88.80000000000001,1285.368,111.00000000000001,1283.163,133.20000000000002,1283.163C155.4,1283.163,177.6,1284.6085,199.79999999999998,1285.368C222,1286.1275,244.20000000000002,1287.72,266.40000000000003,1287.72C288.6,1287.72,310.8,1283.163,333,1283.163C355.2,1283.163,377.4,1285.515,399.59999999999997,1285.515C421.79999999999995,1285.515,444,1283.016,466.2,1283.016C488.40000000000003,1283.016,510.6,1285.515,532.8000000000001,1285.515C555,1285.515,577.2,1285.368,599.4,1285.368C621.6,1285.368,643.8,1285.4415,666,1285.515" stroke="#e377c2" fill="none"/><g><circle class="dot" cx="0" cy="125.09699999999994" r="2" fill="#e377c2"/><circle class="dot" cx="66.60000000000001" cy="1285.368" r="2" fill="#e377c2"/><circle class="dot" cx="133.20000000000002" cy="1283.163" r="2" fill="#e377c2"/><circle class="dot" cx="199.79999999999998" cy="1285.368" r="2" fill="#e377c2"/><circle class="dot" cx="266.40000000000003" cy="1287.72" r="2" fill="#e377c2"/><circle class="dot" cx="333" cy="1283.163" r="2" fill="#e377c2"/><circle class="dot" cx="399.59999999999997" cy="1285.515" r="2" fill="#e377c2"/><circle class="dot" cx="466.2" cy="1283.016" r="2" fill="#e377c2"/><circle class="dot" cx="532.8000000000001" cy="1285.515" r="2" fill="#e377c2"/><circle class="dot" cx="599.4" cy="1285.368" r="2" fill="#e377c2"/><circle class="dot" cx="666" cy="1285.515" r="2" fill="#e377c2"/></g><text font-family="sans-serif" font-size="10" class="labels" x="666" y="1285.515" dx="5" dy="4" text-anchor="start">XXHASH 64</text></g><g id="XXH3 64"><path d="M0,212.12099999999998C22.200000000000003,801.5175,44.400000000000006,1390.914,66.60000000000001,1390.914C88.80000000000001,1390.914,111.00000000000001,1388.709,133.20000000000002,1388.709C155.4,1388.709,177.6,1390.914,199.79999999999998,1390.914C222,1390.914,244.20000000000002,1388.562,266.40000000000003,1388.562C288.6,1388.562,310.8,1393.266,333,1393.266C355.2,1393.266,377.4,1388.562,399.59999999999997,1388.562C421.79999999999995,1388.562,444,1390.914,466.2,1390.914C488.40000000000003,1390.914,510.6,1390.914,532.8000000000001,1390.914C555,1390.914,577.2,1390.914,599.4,1390.914C621.6,1390.914,643.8,1390.914,666,1390.914" stroke="#9467bd" fill="none"/><g><circle class="dot" cx="0" cy="212.12099999999998" r="2" fill="#9467bd"/><circle class="dot" cx="66.60000000000001" cy="1390.914" r="2" fill="#9467bd"/><circle class="dot" cx="133.20000000000002" cy="1388.709" r="2" fill="#9467bd"/><circle class="dot" cx="199.79999999999998" cy="1390.914" r="2" fill="#9467bd"/><circle class="dot" cx="266.40000000000003" cy="1388.562" r="2" fill="#9467bd"/><circle class="dot" cx="333" cy="1393.266" r="2" fill="#9467bd"/><circle class="dot" cx="399.59999999999997" cy="1388.562" r="2" fill="#9467bd"/><circle class="dot" cx="466.2" cy="1390.914" r="2" fill="#9467bd"/><circle class="dot" cx="532.8000000000001" cy="1390.914" r="2" fill="#9467bd"/><circle class="dot" cx="599.4" cy="1390.914" r="2" fill="#9467bd"/><circle class="dot" cx="666" cy="1390.914" r="2" fill="#9467bd"/></g><text font-family="sans-serif" font-size="10" class="labels" x="666" y="1390.914" dx="5" dy="4" text-anchor="start">XXH3 64</text></g></g></g><text y="4" x="4" style="font-family: Arial, sans-serif; font-size: 12px; fill: black; font-weight: bold; dominant-baseline: hanging;"/></g><g id="grid"><rect x="0" y="0" width="810" height="1500" fill="none" stroke="#ccc"/></g></g><g id="legend" transform="translate(810,10)"><g transform="translate(5,0)"><g class="legendColor" transform="translate(0,0)"><g class="legendCells" transform="translate(0,16)"><g class="cell" transform="translate(0, 0)"><rect class="swatch" height="15" width="15" style="fill: rgb(31, 119, 180);"/><text class="label" transform="translate( 20, 12.5)" font-family="&quot;Arial&quot;, sans-serif" font-size="10px"><tspan x="0" dy="0em">Athena 32</tspan></text></g><g class="cell" transform="translate(0, 21)"><rect class="swatch" height="15" width="15" style="fill: rgb(255, 127, 14);"/><text class="label" transform="translate( 20, 12.5)" font-family="&quot;Arial&quot;, sans-serif" font-size="10px"><tspan x="0" dy="0em">Murmur2 32</tspan></text></g><g class="cell" transform="translate(0, 42)"><rect class="swatch" height="15" width="15" style="fill: rgb(44, 160, 44);"/><text class="label" transform="translate( 20, 12.5)" font-family="&quot;Arial&quot;, sans-serif" font-size="10px"><tspan x="0" dy="0em">Murmur3 32</tspan></text></g><g class="cell" transform="translate(0, 63)"><rect class="swatch" height="15" width="15" style="fill: rgb(214, 39, 40);"/><text class="label" transform="translate( 20, 12.5)" font-family="&quot;Arial&quot;, sans-serif" font-size="10px"><tspan x="0" dy="0em">Murmur3 x64 128</tspan></text></g><g class="cell" transform="translate(0, 84)"><rect class="swatch" height="15" width="15" style="fill: rgb(148, 103, 189);"/><text class="label" transform="translate( 20, 12.5)" font-family="&quot;Arial&quot;, sans-serif" font-size="10px"><tspan x="0" dy="0em">XXH3 64</tspan></text></g><g class="cell" transform="translate(0, 105)"><rect class="swatch" height="15" width="15" style="fill: rgb(140, 86, 75);"/><text class="label" transform="translate( 20, 12.5)" font-family="&quot;Arial&quot;, sans-serif" font-size="10px"><tspan x="0" dy="0em">XXHASH 32</tspan></text></g><g class="cell" transform="translate(0, 126)"><rect class="swatch" height="15" width="15" style="fill: rgb(227, 119, 194);"/><text class="label" transform="translate( 20, 12.5)" font-family="&quot;Arial&quot;, sans-serif" font-size="10px"><tspan x="0" dy="0em">XXHASH 64</tspan></text></g></g><text class="legendTitle" font-family="&quot;Arial&quot;, sans-serif" font-size="12px" font-weight="bold"><tspan x="0" dy="0em">Hash</tspan></text></g></g></g></svg>