<svg xmlns="http://www.w3.org/2000/svg" width="1000" height="1400"><rect width="1000" height="1400" x="0" y="0" fill="#FFFFFF" id="backgorund"/><g id="viz"><clipPath id="serieClipPath"><rect x="-50" y="-10" width="800" height="1400"/></clipPath><g transform="translate(0,0)"><g transform="translate(50,10)" clip-path="url(#serieClipPath)"><g id="axis"><g transform="translate(0,1370)" fill="none" font-size="10" font-family="sans-serif" text-anchor="middle"><path class="domain" stroke="currentColor" d="M0.5,0.5H650.5"/><g class="tick" opacity="1" transform="translate(0.5,0)"><line stroke="currentColor" y2="6"/><text fill="currentColor" y="9" dy="0.71em">0.0</text></g><g class="tick" opacity="1" transform="translate(65.5,0)"><line stroke="currentColor" y2="6"/><text fill="currentColor" y="9" dy="0.71em">0.1</text></g><g class="tick" opacity="1" transform="translate(130.5,0)"><line stroke="currentColor" y2="6"/><text fill="currentColor" y="9" dy="0.71em">0.2</text></g><g class="tick" opacity="1" transform="translate(195.5,0)"><line stroke="currentColor" y2="6"/><text fill="currentColor" y="9" dy="0.71em">0.3</text></g><g class="tick" opacity="1" transform="translate(260.5,0)"><line stroke="currentColor" y2="6"/><text fill="currentColor" y="9" dy="0.71em">0.4</text></g><g class="tick" opacity="1" transform="translate(325.5,0)"><line stroke="currentColor" y2="6"/><text fill="currentColor" y="9" dy="0.71em">0.5</text></g><g class="tick" opacity="1" transform="translate(390.5,0)"><line stroke="currentColor" y2="6"/><text fill="currentColor" y="9" dy="0.71em">0.6</text></g><g class="tick" opacity="1" transform="translate(455.49999999999994,0)"><line stroke="currentColor" y2="6"/><text fill="currentColor" y="9" dy="0.71em">0.7</text></g><g class="tick" opacity="1" transform="translate(520.5,0)"><line stroke="currentColor" y2="6"/><text fill="currentColor" y="9" dy="0.71em">0.8</text></g><g class="tick" opacity="1" transform="translate(585.5,0)"><line stroke="currentColor" y2="6"/><text fill="currentColor" y="9" dy="0.71em">0.9</text></g><g class="tick" opacity="1" transform="translate(650.5,0)"><line stroke="currentColor" y2="6"/><text fill="currentColor" y="9" dy="0.71em">1.0</text></g><text x="650" dy="-5" text-anchor="end" style="font-family: Arial, sans-serif; font-size: 12px; fill: rgb(123, 123, 123); font-weight: bold;">Load factor</text></g><g transform="translate(0,0)" fill="none" font-size="10" font-family="sans-serif" text-anchor="end"><path class="domain" stroke="currentColor" d="M0.5,1370.5V0.5"/><g class="tick" opacity="1" transform="translate(0,1370.5)"><line stroke="currentColor" x2="-6"/><text fill="currentColor" x="-9" dy="0.32em">400</text></g><g class="tick" opacity="1" transform="translate(0,1256.3333333333333)"><line stroke="currentColor" x2="-6"/><text fill="currentColor" x="-9" dy="0.32em">500</text></g><g class="tick" opacity="1" transform="translate(0,1142.1666666666667)"><line stroke="currentColor" x2="-6"/><text fill="currentColor" x="-9" dy="0.32em">600</text></g><g class="tick" opacity="1" transform="translate(0,1028)"><line stroke="currentColor" x2="-6"/><text fill="currentColor" x="-9" dy="0.32em">700</text></g><g class="tick" opacity="1" transform="translate(0,913.8333333333335)"><line stroke="currentColor" x2="-6"/><text fill="currentColor" x="-9" dy="0.32em">800</text></g><g class="tick" opacity="1" transform="translate(0,799.6666666666665)"><line stroke="currentColor" x2="-6"/><text fill="currentColor" x="-9" dy="0.32em">900</text></g><g class="tick" opacity="1" transform="translate(0,685.5)"><line stroke="currentColor" x2="-6"/><text fill="currentColor" x="-9" dy="0.32em">1,000</text></g><g class="tick" opacity="1" transform="translate(0,571.3333333333333)"><line stroke="currentColor" x2="-6"/><text fill="currentColor" x="-9" dy="0.32em">1,100</text></g><g class="tick" opacity="1" transform="translate(0,457.16666666666674)"><line stroke="currentColor" x2="-6"/><text fill="currentColor" x="-9" dy="0.32em">1,200</text></g><g class="tick" opacity="1" transform="translate(0,343)"><line stroke="currentColor" x2="-6"/><text fill="currentColor" x="-9" dy="0.32em">1,300</text></g><g class="tick" opacity="1" transform="translate(0,228.8333333333333)"><line stroke="currentColor" x2="-6"/><text fill="currentColor" x="-9" dy="0.32em">1,400</text></g><g class="tick" opacity="1" transform="translate(0,114.66666666666671)"><line stroke="currentColor" x2="-6"/><text fill="currentColor" x="-9" dy="0.32em">1,500</text></g><g class="tick" opacity="1" transform="translate(0,0.5)"><line stroke="currentColor" x2="-6"/><text fill="currentColor" x="-9" dy="0.32em">1,600</text></g><text x="4" text-anchor="start" dominant-baseline="hanging" style="font-family: Arial, sans-serif; font-size: 12px; fill: rgb(123, 123, 123); font-weight: bold;">Result (ms)</text></g></g><g id="viz"><g id="Athena 32"><path d="M0,108.00166666666664C21.666666666666668,661.88125,43.33333333333333,1215.7608333333333,65,1215.7608333333333C86.66666666666667,1215.7608333333333,108.33333333333333,1208.6825,130,1208.6825C151.66666666666666,1208.6825,173.33333333333334,1269.6094444444443,195,1270.9033333333332C216.66666666666666,1272.197222222222,238.33333333333334,1272.8441666666665,260,1272.8441666666665C281.6666666666667,1272.8441666666665,303.3333333333333,1271.0175,325,1271.0175C346.6666666666667,1271.0175,368.3333333333333,1272.140138888889,390,1272.73C411.66666666666663,1273.319861111111,433.3333333333333,1274.5566666666666,454.99999999999994,1274.5566666666666C476.66666666666663,1274.5566666666666,498.3333333333333,1272.73,520,1272.73C541.6666666666666,1272.73,563.3333333333334,1272.73,585,1272.73C606.6666666666666,1272.73,628.3333333333334,1273.6433333333334,650,1274.5566666666666" stroke="#1f77b4" fill="none"/><g><circle class="dot" cx="0" cy="108.00166666666664" r="2" fill="#1f77b4"/><circle class="dot" cx="65" cy="1215.7608333333333" r="2" fill="#1f77b4"/><circle class="dot" cx="130" cy="1208.6825" r="2" fill="#1f77b4"/><circle class="dot" cx="195" cy="1270.9033333333332" r="2" fill="#1f77b4"/><circle class="dot" cx="260" cy="1272.8441666666665" r="2" fill="#1f77b4"/><circle class="dot" cx="325" cy="1271.0175" r="2" fill="#1f77b4"/><circle class="dot" cx="390" cy="1272.73" r="2" fill="#1f77b4"/><circle class="dot" cx="454.99999999999994" cy="1274.5566666666666" r="2" fill="#1f77b4"/><circle class="dot" cx="520" cy="1272.73" r="2" fill="#1f77b4"/><circle class="dot" cx="585" cy="1272.73" r="2" fill="#1f77b4"/><circle class="dot" cx="650" cy="1274.5566666666666" r="2" fill="#1f77b4"/></g><text font-family="sans-serif" font-size="10" class="labels" x="650" y="1274.5566666666666" dx="5" dy="4" text-anchor="start">Athena 32</text></g><g id="Murmur2 32"><path d="M0,321.7216666666667C21.666666666666668,805.5219444444444,43.33333333333333,1289.322222222222,65,1290.54C86.66666666666667,1291.7577777777778,108.33333333333333,1292.3666666666668,130,1292.3666666666668C151.66666666666666,1292.3666666666668,173.33333333333334,1292.3666666666668,195,1292.3666666666668C216.66666666666666,1292.3666666666668,238.33333333333334,1292.3666666666668,260,1292.3666666666668C281.6666666666667,1292.3666666666668,303.3333333333333,1292.3666666666668,325,1292.3666666666668C346.6666666666667,1292.3666666666668,368.3333333333333,1292.3666666666668,390,1292.3666666666668C411.66666666666663,1292.3666666666668,433.3333333333333,1292.3666666666668,454.99999999999994,1292.3666666666668C476.66666666666663,1292.3666666666668,498.3333333333333,1294.0791666666667,520,1294.0791666666667C541.6666666666666,1294.0791666666667,563.3333333333334,1292.3666666666668,585,1292.3666666666668C606.6666666666666,1292.3666666666668,628.3333333333334,1293.2800000000002,650,1294.1933333333334" stroke="#ff7f0e" fill="none"/><g><circle class="dot" cx="0" cy="321.7216666666667" r="2" fill="#ff7f0e"/><circle class="dot" cx="65" cy="1290.54" r="2" fill="#ff7f0e"/><circle class="dot" cx="130" cy="1292.3666666666668" r="2" fill="#ff7f0e"/><circle class="dot" cx="195" cy="1292.3666666666668" r="2" fill="#ff7f0e"/><circle class="dot" cx="260" cy="1292.3666666666668" r="2" fill="#ff7f0e"/><circle class="dot" cx="325" cy="1292.3666666666668" r="2" fill="#ff7f0e"/><circle class="dot" cx="390" cy="1292.3666666666668" r="2" fill="#ff7f0e"/><circle class="dot" cx="454.99999999999994" cy="1292.3666666666668" r="2" fill="#ff7f0e"/><circle class="dot" cx="520" cy="1294.0791666666667" r="2" fill="#ff7f0e"/><circle class="dot" cx="585" cy="1292.3666666666668" r="2" fill="#ff7f0e"/><circle class="dot" cx="650" cy="1294.1933333333334" r="2" fill="#ff7f0e"/></g><text font-family="sans-serif" font-size="10" class="labels" x="650" y="1294.1933333333334" dx="5" dy="4" text-anchor="start">Murmur2 32</text></g><g id="Murmur3 32"><path d="M0,312.8166666666667C21.666666666666668,798.7290277777777,43.33333333333333,1284.6413888888887,65,1287.0008333333333C86.66666666666667,1289.3602777777778,108.33333333333333,1290.54,130,1290.54C151.66666666666666,1290.54,173.33333333333334,1287.115,195,1287.115C216.66666666666666,1287.115,238.33333333333334,1288.8274999999999,260,1288.8274999999999C281.6666666666667,1288.8274999999999,303.3333333333333,1288.8274999999999,325,1288.8274999999999C346.6666666666667,1288.8274999999999,368.3333333333333,1288.8274999999999,390,1288.8274999999999C411.66666666666663,1288.8274999999999,433.3333333333333,1288.8274999999999,454.99999999999994,1288.8274999999999C476.66666666666663,1288.8274999999999,498.3333333333333,1287.0008333333333,520,1287.0008333333333C541.6666666666666,1287.0008333333333,563.3333333333334,1287.0008333333333,585,1287.0008333333333C606.6666666666666,1287.0008333333333,628.3333333333334,1287.0008333333333,650,1287.0008333333333" stroke="#2ca02c" fill="none"/><g><circle class="dot" cx="0" cy="312.8166666666667" r="2" fill="#2ca02c"/><circle class="dot" cx="65" cy="1287.0008333333333" r="2" fill="#2ca02c"/><circle class="dot" cx="130" cy="1290.54" r="2" fill="#2ca02c"/><circle class="dot" cx="195" cy="1287.115" r="2" fill="#2ca02c"/><circle class="dot" cx="260" cy="1288.8274999999999" r="2" fill="#2ca02c"/><circle class="dot" cx="325" cy="1288.8274999999999" r="2" fill="#2ca02c"/><circle class="dot" cx="390" cy="1288.8274999999999" r="2" fill="#2ca02c"/><circle class="dot" cx="454.99999999999994" cy="1288.8274999999999" r="2" fill="#2ca02c"/><circle class="dot" cx="520" cy="1287.0008333333333" r="2" fill="#2ca02c"/><circle class="dot" cx="585" cy="1287.0008333333333" r="2" fill="#2ca02c"/><circle class="dot" cx="650" cy="1287.0008333333333" r="2" fill="#2ca02c"/></g><text font-family="sans-serif" font-size="10" class="labels" x="650" y="1287.0008333333333" dx="5" dy="4" text-anchor="start">Murmur3 32</text></g><g id="Murmur3 x64 128"><path d="M0,172.16333333333324C21.666666666666668,672.2513888888891,43.33333333333333,1172.3394444444446,65,1174.775C86.66666666666667,1177.2105555555556,108.33333333333333,1178.4283333333335,130,1178.4283333333335C151.66666666666666,1178.4283333333335,173.33333333333334,1177.1915277777778,195,1176.6016666666667C216.66666666666666,1176.0118055555556,238.33333333333334,1174.9652777777776,260,1174.8891666666666C281.6666666666667,1174.8130555555556,303.3333333333333,1174.775,325,1174.775C346.6666666666667,1174.775,368.3333333333333,1178.3141666666666,390,1178.3141666666666C411.66666666666663,1178.3141666666666,433.3333333333333,1174.8891666666666,454.99999999999994,1174.8891666666666C476.66666666666663,1174.8891666666666,498.3333333333333,1176.6016666666667,520,1176.6016666666667C541.6666666666666,1176.6016666666667,563.3333333333334,1171.2358333333334,585,1171.2358333333334C606.6666666666666,1171.2358333333334,628.3333333333334,1173.0054166666666,650,1174.775" stroke="#d62728" fill="none"/><g><circle class="dot" cx="0" cy="172.16333333333324" r="2" fill="#d62728"/><circle class="dot" cx="65" cy="1174.775" r="2" fill="#d62728"/><circle class="dot" cx="130" cy="1178.4283333333335" r="2" fill="#d62728"/><circle class="dot" cx="195" cy="1176.6016666666667" r="2" fill="#d62728"/><circle class="dot" cx="260" cy="1174.8891666666666" r="2" fill="#d62728"/><circle class="dot" cx="325" cy="1174.775" r="2" fill="#d62728"/><circle class="dot" cx="390" cy="1178.3141666666666" r="2" fill="#d62728"/><circle class="dot" cx="454.99999999999994" cy="1174.8891666666666" r="2" fill="#d62728"/><circle class="dot" cx="520" cy="1176.6016666666667" r="2" fill="#d62728"/><circle class="dot" cx="585" cy="1171.2358333333334" r="2" fill="#d62728"/><circle class="dot" cx="650" cy="1174.775" r="2" fill="#d62728"/></g><text font-family="sans-serif" font-size="10" class="labels" x="650" y="1174.775" dx="5" dy="4" text-anchor="start">Murmur3 x64 128</text></g><g id="XXHASH 32"><path d="M0,305.7383333333333C21.666666666666668,796.3695833333334,43.33333333333333,1287.0008333333333,65,1287.0008333333333C86.66666666666667,1287.0008333333333,108.33333333333333,1283.4616666666666,130,1283.4616666666666C151.66666666666666,1283.4616666666666,173.33333333333334,1287.0008333333333,195,1287.0008333333333C216.66666666666666,1287.0008333333333,238.33333333333334,1287.0008333333333,260,1287.0008333333333C281.6666666666667,1287.0008333333333,303.3333333333333,1285.3644444444446,325,1285.2883333333334C346.6666666666667,1285.2122222222222,368.3333333333333,1285.1741666666667,390,1285.1741666666667C411.66666666666663,1285.1741666666667,433.3333333333333,1287.115,454.99999999999994,1287.115C476.66666666666663,1287.115,498.3333333333333,1285.1741666666667,520,1285.1741666666667C541.6666666666666,1285.1741666666667,563.3333333333334,1285.2883333333334,585,1285.2883333333334C606.6666666666666,1285.2883333333334,628.3333333333334,1284.375,650,1283.4616666666666" stroke="#8c564b" fill="none"/><g><circle class="dot" cx="0" cy="305.7383333333333" r="2" fill="#8c564b"/><circle class="dot" cx="65" cy="1287.0008333333333" r="2" fill="#8c564b"/><circle class="dot" cx="130" cy="1283.4616666666666" r="2" fill="#8c564b"/><circle class="dot" cx="195" cy="1287.0008333333333" r="2" fill="#8c564b"/><circle class="dot" cx="260" cy="1287.0008333333333" r="2" fill="#8c564b"/><circle class="dot" cx="325" cy="1285.2883333333334" r="2" fill="#8c564b"/><circle class="dot" cx="390" cy="1285.1741666666667" r="2" fill="#8c564b"/><circle class="dot" cx="454.99999999999994" cy="1287.115" r="2" fill="#8c564b"/><circle class="dot" cx="520" cy="1285.1741666666667" r="2" fill="#8c564b"/><circle class="dot" cx="585" cy="1285.2883333333334" r="2" fill="#8c564b"/><circle class="dot" cx="650" cy="1283.4616666666666" r="2" fill="#8c564b"/></g><text font-family="sans-serif" font-size="10" class="labels" x="650" y="1283.4616666666666" dx="5" dy="4" text-anchor="start">XXHASH 32</text></g><g id="XXHASH 64"><path d="M0,220.1133333333333C21.666666666666668,703.6281944444444,43.33333333333333,1187.1430555555553,65,1187.2191666666665C86.66666666666667,1187.2952777777778,108.33333333333333,1187.3333333333335,130,1187.3333333333335C151.66666666666666,1187.3333333333335,173.33333333333334,1187.3333333333335,195,1187.3333333333335C216.66666666666666,1187.3333333333335,238.33333333333334,1187.3333333333335,260,1187.3333333333335C281.6666666666667,1187.3333333333335,303.3333333333333,1183.7941666666666,325,1183.7941666666666C346.6666666666667,1183.7941666666666,368.3333333333333,1187.2191666666665,390,1187.2191666666665C411.66666666666663,1187.2191666666665,433.3333333333333,1187.2191666666665,454.99999999999994,1187.2191666666665C476.66666666666663,1187.2191666666665,498.3333333333333,1178.3141666666666,520,1178.3141666666666C541.6666666666666,1178.3141666666666,563.3333333333334,1178.3141666666666,585,1178.3141666666666C606.6666666666666,1178.3141666666666,628.3333333333334,1181.9104166666666,650,1185.5066666666667" stroke="#e377c2" fill="none"/><g><circle class="dot" cx="0" cy="220.1133333333333" r="2" fill="#e377c2"/><circle class="dot" cx="65" cy="1187.2191666666665" r="2" fill="#e377c2"/><circle class="dot" cx="130" cy="1187.3333333333335" r="2" fill="#e377c2"/><circle class="dot" cx="195" cy="1187.3333333333335" r="2" fill="#e377c2"/><circle class="dot" cx="260" cy="1187.3333333333335" r="2" fill="#e377c2"/><circle class="dot" cx="325" cy="1183.7941666666666" r="2" fill="#e377c2"/><circle class="dot" cx="390" cy="1187.2191666666665" r="2" fill="#e377c2"/><circle class="dot" cx="454.99999999999994" cy="1187.2191666666665" r="2" fill="#e377c2"/><circle class="dot" cx="520" cy="1178.3141666666666" r="2" fill="#e377c2"/><circle class="dot" cx="585" cy="1178.3141666666666" r="2" fill="#e377c2"/><circle class="dot" cx="650" cy="1185.5066666666667" r="2" fill="#e377c2"/></g><text font-family="sans-serif" font-size="10" class="labels" x="650" y="1185.5066666666667" dx="5" dy="4" text-anchor="start">XXHASH 64</text></g><g id="XXH3 64"><path d="M0,273.65749999999997C21.666666666666668,761.3013888888889,43.33333333333333,1248.9452777777778,65,1251.3808333333334C86.66666666666667,1253.816388888889,108.33333333333333,1255.0341666666668,130,1255.0341666666668C151.66666666666666,1255.0341666666668,173.33333333333334,1254.9961111111113,195,1254.92C216.66666666666666,1254.8438888888888,238.33333333333334,1251.3808333333334,260,1251.3808333333334C281.6666666666667,1251.3808333333334,303.3333333333333,1253.2075,325,1253.2075C346.6666666666667,1253.2075,368.3333333333333,1249.6683333333333,390,1249.6683333333333C411.66666666666663,1249.6683333333333,433.3333333333333,1254.92,454.99999999999994,1254.92C476.66666666666663,1254.92,498.3333333333333,1253.2075,520,1253.2075C541.6666666666666,1253.2075,563.3333333333334,1254.92,585,1254.92C606.6666666666666,1254.92,628.3333333333334,1254.06375,650,1253.2075" stroke="#9467bd" fill="none"/><g><circle class="dot" cx="0" cy="273.65749999999997" r="2" fill="#9467bd"/><circle class="dot" cx="65" cy="1251.3808333333334" r="2" fill="#9467bd"/><circle class="dot" cx="130" cy="1255.0341666666668" r="2" fill="#9467bd"/><circle class="dot" cx="195" cy="1254.92" r="2" fill="#9467bd"/><circle class="dot" cx="260" cy="1251.3808333333334" r="2" fill="#9467bd"/><circle class="dot" cx="325" cy="1253.2075" r="2" fill="#9467bd"/><circle class="dot" cx="390" cy="1249.6683333333333" r="2" fill="#9467bd"/><circle class="dot" cx="454.99999999999994" cy="1254.92" r="2" fill="#9467bd"/><circle class="dot" cx="520" cy="1253.2075" r="2" fill="#9467bd"/><circle class="dot" cx="585" cy="1254.92" r="2" fill="#9467bd"/><circle class="dot" cx="650" cy="1253.2075" r="2" fill="#9467bd"/></g><text font-family="sans-serif" font-size="10" class="labels" x="650" y="1253.2075" dx="5" dy="4" text-anchor="start">XXH3 64</text></g></g></g><text y="4" x="4" style="font-family: Arial, sans-serif; font-size: 12px; fill: black; font-weight: bold; dominant-baseline: hanging;"/></g><g id="grid"><rect x="0" y="0" width="800" height="1400" fill="none" stroke="#ccc"/></g></g><g id="legend" transform="translate(800,10)"><g transform="translate(5,0)"><g class="legendColor" transform="translate(0,0)"><g class="legendCells" transform="translate(0,16)"><g class="cell" transform="translate(0, 0)"><rect class="swatch" height="15" width="15" style="fill: rgb(31, 119, 180);"/><text class="label" transform="translate( 20, 12.5)" font-family="&quot;Arial&quot;, sans-serif" font-size="10px"><tspan x="0" dy="0em">Athena 32</tspan></text></g><g class="cell" transform="translate(0, 21)"><rect class="swatch" height="15" width="15" style="fill: rgb(255, 127, 14);"/><text class="label" transform="translate( 20, 12.5)" font-family="&quot;Arial&quot;, sans-serif" font-size="10px"><tspan x="0" dy="0em">Murmur2 32</tspan></text></g><g class="cell" transform="translate(0, 42)"><rect class="swatch" height="15" width="15" style="fill: rgb(44, 160, 44);"/><text class="label" transform="translate( 20, 12.5)" font-family="&quot;Arial&quot;, sans-serif" font-size="10px"><tspan x="0" dy="0em">Murmur3 32</tspan></text></g><g class="cell" transform="translate(0, 63)"><rect class="swatch" height="15" width="15" style="fill: rgb(214, 39, 40);"/><text class="label" transform="translate( 20, 12.5)" font-family="&quot;Arial&quot;, sans-serif" font-size="10px"><tspan x="0" dy="0em">Murmur3 x64 128</tspan></text></g><g class="cell" transform="translate(0, 84)"><rect class="swatch" height="15" width="15" style="fill: rgb(148, 103, 189);"/><text class="label" transform="translate( 20, 12.5)" font-family="&quot;Arial&quot;, sans-serif" font-size="10px"><tspan x="0" dy="0em">XXH3 64</tspan></text></g><g class="cell" transform="translate(0, 105)"><rect class="swatch" height="15" width="15" style="fill: rgb(140, 86, 75);"/><text class="label" transform="translate( 20, 12.5)" font-family="&quot;Arial&quot;, sans-serif" font-size="10px"><tspan x="0" dy="0em">XXHASH 32</tspan></text></g><g class="cell" transform="translate(0, 126)"><rect class="swatch" height="15" width="15" style="fill: rgb(227, 119, 194);"/><text class="label" transform="translate( 20, 12.5)" font-family="&quot;Arial&quot;, sans-serif" font-size="10px"><tspan x="0" dy="0em">XXHASH 64</tspan></text></g></g><text class="legendTitle" font-family="&quot;Arial&quot;, sans-serif" font-size="12px" font-weight="bold"><tspan x="0" dy="0em">Hash</tspan></text></g></g></g></svg>